M48
INCH
T1C0.0157
T2C0.0157
T3C0.0315
T4C0.0394
T5C0.0866
%
G90
G05
T1
X5.065Y-2.76
X5.09Y-3.03
X5.5067Y-4.2005
X5.95Y-2.83
X5.95Y-3.38
X5.95Y-3.795
X6.2745Y-4.03
X6.2745Y-4.3887
X6.49Y-2.71
X6.49Y-2.84
X6.49Y-3.135
X6.49Y-3.485
X6.64Y-3.58
X6.8Y-3.14
X6.805Y-3.38
X7.41Y-2.585
T2
X4.865Y-2.45
X4.8841Y-2.404
X4.8841Y-2.4959
X4.93Y-2.385
X4.93Y-2.5149
X4.9759Y-2.404
X4.9759Y-2.4959
X4.995Y-2.45
X6.265Y-4.59
X6.2841Y-4.5441
X6.2841Y-4.6359
X6.33Y-4.525
X6.33Y-4.655
X6.3759Y-4.5441
X6.3759Y-4.6359
X6.395Y-4.59
X7.62Y-2.455
X7.635Y-4.59
X7.6391Y-2.4091
X7.6391Y-2.5009
X7.6541Y-4.5441
X7.6541Y-4.6359
X7.685Y-2.39
X7.685Y-2.52
X7.7Y-4.525
X7.7Y-4.655
X7.7309Y-2.4091
X7.7309Y-2.5009
X7.7459Y-4.5441
X7.7459Y-4.6359
X7.75Y-2.455
X7.765Y-4.59
T3
X4.97Y-3.82
X4.97Y-3.92
X4.97Y-4.02
X4.97Y-4.12
X4.97Y-4.22
X4.97Y-4.32
X4.97Y-4.42
X4.97Y-4.52
X4.98Y-2.88
X4.98Y-2.98
X4.98Y-3.08
X4.98Y-3.18
X4.98Y-3.28
X4.98Y-3.38
X4.98Y-3.48
X4.98Y-3.58
X5.27Y-3.82
X5.27Y-3.92
X5.27Y-4.02
X5.27Y-4.12
X5.27Y-4.22
X5.27Y-4.32
X5.27Y-4.42
X5.27Y-4.52
X5.28Y-2.88
X5.28Y-2.98
X5.28Y-3.08
X5.28Y-3.18
X5.28Y-3.28
X5.28Y-3.38
X5.28Y-3.48
X5.28Y-3.58
T4
X5.77Y-2.78
X5.77Y-2.88
X5.77Y-2.98
X5.77Y-3.08
X5.77Y-3.18
X5.77Y-3.28
X5.77Y-3.38
X5.77Y-3.48
X5.77Y-3.58
X5.77Y-3.68
X5.77Y-3.78
X5.77Y-3.88
X5.77Y-3.98
X5.77Y-4.08
X6.37Y-2.78
X6.37Y-2.88
X6.37Y-2.98
X6.37Y-3.08
X6.37Y-3.18
X6.37Y-3.28
X6.37Y-3.38
X6.37Y-3.48
X6.37Y-3.58
X6.37Y-3.68
X6.37Y-3.78
X6.37Y-3.88
X6.37Y-3.98
X6.37Y-4.08
X6.94Y-2.78
X6.94Y-2.88
X6.94Y-2.98
X6.94Y-3.08
X6.94Y-3.18
X6.94Y-3.28
X6.94Y-3.38
X6.94Y-3.48
X6.94Y-3.58
X6.94Y-3.68
X6.94Y-3.78
X6.94Y-3.88
X6.94Y-3.98
X6.94Y-4.08
X6.94Y-4.18
X7.54Y-2.78
X7.54Y-2.88
X7.54Y-2.98
X7.54Y-3.08
X7.54Y-3.18
X7.54Y-3.28
X7.54Y-3.38
X7.54Y-3.48
X7.54Y-3.58
X7.54Y-3.68
X7.54Y-3.78
X7.54Y-3.88
X7.54Y-3.98
X7.54Y-4.08
X7.54Y-4.18
T5
X4.93Y-2.45
X6.33Y-4.59
X7.685Y-2.455
X7.7Y-4.59
T0
M30
