%TF.GenerationSoftware,KiCad,Pcbnew,7.0.9*%
%TF.CreationDate,2024-03-10T15:23:14-03:00*%
%TF.ProjectId,prompcb,70726f6d-7063-4622-9e6b-696361645f70,rev?*%
%TF.SameCoordinates,Original*%
%TF.FileFunction,Legend,Top*%
%TF.FilePolarity,Positive*%
%FSLAX46Y46*%
G04 Gerber Fmt 4.6, Leading zero omitted, Abs format (unit mm)*
G04 Created by KiCad (PCBNEW 7.0.9) date 2024-03-10 15:23:14*
%MOMM*%
%LPD*%
G01*
G04 APERTURE LIST*
%ADD10C,0.200000*%
%ADD11C,0.300000*%
%ADD12C,0.150000*%
%ADD13C,0.120000*%
%ADD14R,2.000000X1.440000*%
%ADD15O,2.000000X1.440000*%
%ADD16C,0.700000*%
%ADD17C,4.400000*%
%ADD18R,1.600000X1.600000*%
%ADD19O,1.600000X1.600000*%
%ADD20O,2.400000X1.600000*%
%ADD21R,2.400000X1.600000*%
G04 APERTURE END LIST*
D10*
X137939571Y-72481863D02*
X137939571Y-73481863D01*
X137939571Y-73481863D02*
X136439571Y-72839006D01*
X137439571Y-74696149D02*
X136439571Y-74696149D01*
X138011000Y-74339006D02*
X136939571Y-73981863D01*
X136939571Y-73981863D02*
X136939571Y-74910434D01*
X136439571Y-75481862D02*
X137939571Y-75481862D01*
X137225285Y-75481862D02*
X137225285Y-76339005D01*
X136439571Y-76339005D02*
X137939571Y-76339005D01*
X136582428Y-77910434D02*
X136511000Y-77839006D01*
X136511000Y-77839006D02*
X136439571Y-77624720D01*
X136439571Y-77624720D02*
X136439571Y-77481863D01*
X136439571Y-77481863D02*
X136511000Y-77267577D01*
X136511000Y-77267577D02*
X136653857Y-77124720D01*
X136653857Y-77124720D02*
X136796714Y-77053291D01*
X136796714Y-77053291D02*
X137082428Y-76981863D01*
X137082428Y-76981863D02*
X137296714Y-76981863D01*
X137296714Y-76981863D02*
X137582428Y-77053291D01*
X137582428Y-77053291D02*
X137725285Y-77124720D01*
X137725285Y-77124720D02*
X137868142Y-77267577D01*
X137868142Y-77267577D02*
X137939571Y-77481863D01*
X137939571Y-77481863D02*
X137939571Y-77624720D01*
X137939571Y-77624720D02*
X137868142Y-77839006D01*
X137868142Y-77839006D02*
X137796714Y-77910434D01*
X137939571Y-79267577D02*
X137939571Y-78553291D01*
X137939571Y-78553291D02*
X137225285Y-78481863D01*
X137225285Y-78481863D02*
X137296714Y-78553291D01*
X137296714Y-78553291D02*
X137368142Y-78696149D01*
X137368142Y-78696149D02*
X137368142Y-79053291D01*
X137368142Y-79053291D02*
X137296714Y-79196149D01*
X137296714Y-79196149D02*
X137225285Y-79267577D01*
X137225285Y-79267577D02*
X137082428Y-79339006D01*
X137082428Y-79339006D02*
X136725285Y-79339006D01*
X136725285Y-79339006D02*
X136582428Y-79267577D01*
X136582428Y-79267577D02*
X136511000Y-79196149D01*
X136511000Y-79196149D02*
X136439571Y-79053291D01*
X136439571Y-79053291D02*
X136439571Y-78696149D01*
X136439571Y-78696149D02*
X136511000Y-78553291D01*
X136511000Y-78553291D02*
X136582428Y-78481863D01*
X136439571Y-80053291D02*
X136439571Y-80339005D01*
X136439571Y-80339005D02*
X136511000Y-80481862D01*
X136511000Y-80481862D02*
X136582428Y-80553291D01*
X136582428Y-80553291D02*
X136796714Y-80696148D01*
X136796714Y-80696148D02*
X137082428Y-80767577D01*
X137082428Y-80767577D02*
X137653857Y-80767577D01*
X137653857Y-80767577D02*
X137796714Y-80696148D01*
X137796714Y-80696148D02*
X137868142Y-80624720D01*
X137868142Y-80624720D02*
X137939571Y-80481862D01*
X137939571Y-80481862D02*
X137939571Y-80196148D01*
X137939571Y-80196148D02*
X137868142Y-80053291D01*
X137868142Y-80053291D02*
X137796714Y-79981862D01*
X137796714Y-79981862D02*
X137653857Y-79910434D01*
X137653857Y-79910434D02*
X137296714Y-79910434D01*
X137296714Y-79910434D02*
X137153857Y-79981862D01*
X137153857Y-79981862D02*
X137082428Y-80053291D01*
X137082428Y-80053291D02*
X137011000Y-80196148D01*
X137011000Y-80196148D02*
X137011000Y-80481862D01*
X137011000Y-80481862D02*
X137082428Y-80624720D01*
X137082428Y-80624720D02*
X137153857Y-80696148D01*
X137153857Y-80696148D02*
X137296714Y-80767577D01*
X137939571Y-82124719D02*
X137939571Y-81410433D01*
X137939571Y-81410433D02*
X137225285Y-81339005D01*
X137225285Y-81339005D02*
X137296714Y-81410433D01*
X137296714Y-81410433D02*
X137368142Y-81553291D01*
X137368142Y-81553291D02*
X137368142Y-81910433D01*
X137368142Y-81910433D02*
X137296714Y-82053291D01*
X137296714Y-82053291D02*
X137225285Y-82124719D01*
X137225285Y-82124719D02*
X137082428Y-82196148D01*
X137082428Y-82196148D02*
X136725285Y-82196148D01*
X136725285Y-82196148D02*
X136582428Y-82124719D01*
X136582428Y-82124719D02*
X136511000Y-82053291D01*
X136511000Y-82053291D02*
X136439571Y-81910433D01*
X136439571Y-81910433D02*
X136439571Y-81553291D01*
X136439571Y-81553291D02*
X136511000Y-81410433D01*
X136511000Y-81410433D02*
X136582428Y-81339005D01*
X137685571Y-96154663D02*
X137685571Y-97154663D01*
X137685571Y-97154663D02*
X136185571Y-96511806D01*
X137185571Y-98368949D02*
X136185571Y-98368949D01*
X137757000Y-98011806D02*
X136685571Y-97654663D01*
X136685571Y-97654663D02*
X136685571Y-98583234D01*
X136185571Y-99154662D02*
X137685571Y-99154662D01*
X136971285Y-99154662D02*
X136971285Y-100011805D01*
X136185571Y-100011805D02*
X137685571Y-100011805D01*
X136328428Y-101583234D02*
X136257000Y-101511806D01*
X136257000Y-101511806D02*
X136185571Y-101297520D01*
X136185571Y-101297520D02*
X136185571Y-101154663D01*
X136185571Y-101154663D02*
X136257000Y-100940377D01*
X136257000Y-100940377D02*
X136399857Y-100797520D01*
X136399857Y-100797520D02*
X136542714Y-100726091D01*
X136542714Y-100726091D02*
X136828428Y-100654663D01*
X136828428Y-100654663D02*
X137042714Y-100654663D01*
X137042714Y-100654663D02*
X137328428Y-100726091D01*
X137328428Y-100726091D02*
X137471285Y-100797520D01*
X137471285Y-100797520D02*
X137614142Y-100940377D01*
X137614142Y-100940377D02*
X137685571Y-101154663D01*
X137685571Y-101154663D02*
X137685571Y-101297520D01*
X137685571Y-101297520D02*
X137614142Y-101511806D01*
X137614142Y-101511806D02*
X137542714Y-101583234D01*
X137685571Y-102940377D02*
X137685571Y-102226091D01*
X137685571Y-102226091D02*
X136971285Y-102154663D01*
X136971285Y-102154663D02*
X137042714Y-102226091D01*
X137042714Y-102226091D02*
X137114142Y-102368949D01*
X137114142Y-102368949D02*
X137114142Y-102726091D01*
X137114142Y-102726091D02*
X137042714Y-102868949D01*
X137042714Y-102868949D02*
X136971285Y-102940377D01*
X136971285Y-102940377D02*
X136828428Y-103011806D01*
X136828428Y-103011806D02*
X136471285Y-103011806D01*
X136471285Y-103011806D02*
X136328428Y-102940377D01*
X136328428Y-102940377D02*
X136257000Y-102868949D01*
X136257000Y-102868949D02*
X136185571Y-102726091D01*
X136185571Y-102726091D02*
X136185571Y-102368949D01*
X136185571Y-102368949D02*
X136257000Y-102226091D01*
X136257000Y-102226091D02*
X136328428Y-102154663D01*
X136185571Y-103726091D02*
X136185571Y-104011805D01*
X136185571Y-104011805D02*
X136257000Y-104154662D01*
X136257000Y-104154662D02*
X136328428Y-104226091D01*
X136328428Y-104226091D02*
X136542714Y-104368948D01*
X136542714Y-104368948D02*
X136828428Y-104440377D01*
X136828428Y-104440377D02*
X137399857Y-104440377D01*
X137399857Y-104440377D02*
X137542714Y-104368948D01*
X137542714Y-104368948D02*
X137614142Y-104297520D01*
X137614142Y-104297520D02*
X137685571Y-104154662D01*
X137685571Y-104154662D02*
X137685571Y-103868948D01*
X137685571Y-103868948D02*
X137614142Y-103726091D01*
X137614142Y-103726091D02*
X137542714Y-103654662D01*
X137542714Y-103654662D02*
X137399857Y-103583234D01*
X137399857Y-103583234D02*
X137042714Y-103583234D01*
X137042714Y-103583234D02*
X136899857Y-103654662D01*
X136899857Y-103654662D02*
X136828428Y-103726091D01*
X136828428Y-103726091D02*
X136757000Y-103868948D01*
X136757000Y-103868948D02*
X136757000Y-104154662D01*
X136757000Y-104154662D02*
X136828428Y-104297520D01*
X136828428Y-104297520D02*
X136899857Y-104368948D01*
X136899857Y-104368948D02*
X137042714Y-104440377D01*
X137685571Y-105797519D02*
X137685571Y-105083233D01*
X137685571Y-105083233D02*
X136971285Y-105011805D01*
X136971285Y-105011805D02*
X137042714Y-105083233D01*
X137042714Y-105083233D02*
X137114142Y-105226091D01*
X137114142Y-105226091D02*
X137114142Y-105583233D01*
X137114142Y-105583233D02*
X137042714Y-105726091D01*
X137042714Y-105726091D02*
X136971285Y-105797519D01*
X136971285Y-105797519D02*
X136828428Y-105868948D01*
X136828428Y-105868948D02*
X136471285Y-105868948D01*
X136471285Y-105868948D02*
X136328428Y-105797519D01*
X136328428Y-105797519D02*
X136257000Y-105726091D01*
X136257000Y-105726091D02*
X136185571Y-105583233D01*
X136185571Y-105583233D02*
X136185571Y-105226091D01*
X136185571Y-105226091D02*
X136257000Y-105083233D01*
X136257000Y-105083233D02*
X136328428Y-105011805D01*
D11*
X143529520Y-111569714D02*
X143624758Y-111474476D01*
X143624758Y-111474476D02*
X143815234Y-111379238D01*
X143815234Y-111379238D02*
X144291425Y-111379238D01*
X144291425Y-111379238D02*
X144481901Y-111474476D01*
X144481901Y-111474476D02*
X144577139Y-111569714D01*
X144577139Y-111569714D02*
X144672377Y-111760190D01*
X144672377Y-111760190D02*
X144672377Y-111950666D01*
X144672377Y-111950666D02*
X144577139Y-112236380D01*
X144577139Y-112236380D02*
X143434282Y-113379238D01*
X143434282Y-113379238D02*
X144672377Y-113379238D01*
X145815234Y-112236380D02*
X145624758Y-112141142D01*
X145624758Y-112141142D02*
X145529520Y-112045904D01*
X145529520Y-112045904D02*
X145434282Y-111855428D01*
X145434282Y-111855428D02*
X145434282Y-111760190D01*
X145434282Y-111760190D02*
X145529520Y-111569714D01*
X145529520Y-111569714D02*
X145624758Y-111474476D01*
X145624758Y-111474476D02*
X145815234Y-111379238D01*
X145815234Y-111379238D02*
X146196187Y-111379238D01*
X146196187Y-111379238D02*
X146386663Y-111474476D01*
X146386663Y-111474476D02*
X146481901Y-111569714D01*
X146481901Y-111569714D02*
X146577139Y-111760190D01*
X146577139Y-111760190D02*
X146577139Y-111855428D01*
X146577139Y-111855428D02*
X146481901Y-112045904D01*
X146481901Y-112045904D02*
X146386663Y-112141142D01*
X146386663Y-112141142D02*
X146196187Y-112236380D01*
X146196187Y-112236380D02*
X145815234Y-112236380D01*
X145815234Y-112236380D02*
X145624758Y-112331619D01*
X145624758Y-112331619D02*
X145529520Y-112426857D01*
X145529520Y-112426857D02*
X145434282Y-112617333D01*
X145434282Y-112617333D02*
X145434282Y-112998285D01*
X145434282Y-112998285D02*
X145529520Y-113188761D01*
X145529520Y-113188761D02*
X145624758Y-113284000D01*
X145624758Y-113284000D02*
X145815234Y-113379238D01*
X145815234Y-113379238D02*
X146196187Y-113379238D01*
X146196187Y-113379238D02*
X146386663Y-113284000D01*
X146386663Y-113284000D02*
X146481901Y-113188761D01*
X146481901Y-113188761D02*
X146577139Y-112998285D01*
X146577139Y-112998285D02*
X146577139Y-112617333D01*
X146577139Y-112617333D02*
X146481901Y-112426857D01*
X146481901Y-112426857D02*
X146386663Y-112331619D01*
X146386663Y-112331619D02*
X146196187Y-112236380D01*
X148577139Y-113188761D02*
X148481901Y-113284000D01*
X148481901Y-113284000D02*
X148196187Y-113379238D01*
X148196187Y-113379238D02*
X148005711Y-113379238D01*
X148005711Y-113379238D02*
X147719996Y-113284000D01*
X147719996Y-113284000D02*
X147529520Y-113093523D01*
X147529520Y-113093523D02*
X147434282Y-112903047D01*
X147434282Y-112903047D02*
X147339044Y-112522095D01*
X147339044Y-112522095D02*
X147339044Y-112236380D01*
X147339044Y-112236380D02*
X147434282Y-111855428D01*
X147434282Y-111855428D02*
X147529520Y-111664952D01*
X147529520Y-111664952D02*
X147719996Y-111474476D01*
X147719996Y-111474476D02*
X148005711Y-111379238D01*
X148005711Y-111379238D02*
X148196187Y-111379238D01*
X148196187Y-111379238D02*
X148481901Y-111474476D01*
X148481901Y-111474476D02*
X148577139Y-111569714D01*
X149339044Y-111569714D02*
X149434282Y-111474476D01*
X149434282Y-111474476D02*
X149624758Y-111379238D01*
X149624758Y-111379238D02*
X150100949Y-111379238D01*
X150100949Y-111379238D02*
X150291425Y-111474476D01*
X150291425Y-111474476D02*
X150386663Y-111569714D01*
X150386663Y-111569714D02*
X150481901Y-111760190D01*
X150481901Y-111760190D02*
X150481901Y-111950666D01*
X150481901Y-111950666D02*
X150386663Y-112236380D01*
X150386663Y-112236380D02*
X149243806Y-113379238D01*
X149243806Y-113379238D02*
X150481901Y-113379238D01*
X152291425Y-111379238D02*
X151339044Y-111379238D01*
X151339044Y-111379238D02*
X151243806Y-112331619D01*
X151243806Y-112331619D02*
X151339044Y-112236380D01*
X151339044Y-112236380D02*
X151529520Y-112141142D01*
X151529520Y-112141142D02*
X152005711Y-112141142D01*
X152005711Y-112141142D02*
X152196187Y-112236380D01*
X152196187Y-112236380D02*
X152291425Y-112331619D01*
X152291425Y-112331619D02*
X152386663Y-112522095D01*
X152386663Y-112522095D02*
X152386663Y-112998285D01*
X152386663Y-112998285D02*
X152291425Y-113188761D01*
X152291425Y-113188761D02*
X152196187Y-113284000D01*
X152196187Y-113284000D02*
X152005711Y-113379238D01*
X152005711Y-113379238D02*
X151529520Y-113379238D01*
X151529520Y-113379238D02*
X151339044Y-113284000D01*
X151339044Y-113284000D02*
X151243806Y-113188761D01*
X154100949Y-111379238D02*
X153719996Y-111379238D01*
X153719996Y-111379238D02*
X153529520Y-111474476D01*
X153529520Y-111474476D02*
X153434282Y-111569714D01*
X153434282Y-111569714D02*
X153243806Y-111855428D01*
X153243806Y-111855428D02*
X153148568Y-112236380D01*
X153148568Y-112236380D02*
X153148568Y-112998285D01*
X153148568Y-112998285D02*
X153243806Y-113188761D01*
X153243806Y-113188761D02*
X153339044Y-113284000D01*
X153339044Y-113284000D02*
X153529520Y-113379238D01*
X153529520Y-113379238D02*
X153910473Y-113379238D01*
X153910473Y-113379238D02*
X154100949Y-113284000D01*
X154100949Y-113284000D02*
X154196187Y-113188761D01*
X154196187Y-113188761D02*
X154291425Y-112998285D01*
X154291425Y-112998285D02*
X154291425Y-112522095D01*
X154291425Y-112522095D02*
X154196187Y-112331619D01*
X154196187Y-112331619D02*
X154100949Y-112236380D01*
X154100949Y-112236380D02*
X153910473Y-112141142D01*
X153910473Y-112141142D02*
X153529520Y-112141142D01*
X153529520Y-112141142D02*
X153339044Y-112236380D01*
X153339044Y-112236380D02*
X153243806Y-112331619D01*
X153243806Y-112331619D02*
X153148568Y-112522095D01*
X194786190Y-70987120D02*
X194786190Y-71939501D01*
X194214761Y-70796644D02*
X196214761Y-71463310D01*
X196214761Y-71463310D02*
X194214761Y-72129977D01*
X194214761Y-72796644D02*
X195548095Y-72796644D01*
X195167142Y-72796644D02*
X195357619Y-72891882D01*
X195357619Y-72891882D02*
X195452857Y-72987120D01*
X195452857Y-72987120D02*
X195548095Y-73177596D01*
X195548095Y-73177596D02*
X195548095Y-73368073D01*
X194214761Y-74891882D02*
X196214761Y-74891882D01*
X194310000Y-74891882D02*
X194214761Y-74701406D01*
X194214761Y-74701406D02*
X194214761Y-74320453D01*
X194214761Y-74320453D02*
X194310000Y-74129977D01*
X194310000Y-74129977D02*
X194405238Y-74034739D01*
X194405238Y-74034739D02*
X194595714Y-73939501D01*
X194595714Y-73939501D02*
X195167142Y-73939501D01*
X195167142Y-73939501D02*
X195357619Y-74034739D01*
X195357619Y-74034739D02*
X195452857Y-74129977D01*
X195452857Y-74129977D02*
X195548095Y-74320453D01*
X195548095Y-74320453D02*
X195548095Y-74701406D01*
X195548095Y-74701406D02*
X195452857Y-74891882D01*
X195548095Y-76701406D02*
X194214761Y-76701406D01*
X195548095Y-75844263D02*
X194500476Y-75844263D01*
X194500476Y-75844263D02*
X194310000Y-75939501D01*
X194310000Y-75939501D02*
X194214761Y-76129977D01*
X194214761Y-76129977D02*
X194214761Y-76415692D01*
X194214761Y-76415692D02*
X194310000Y-76606168D01*
X194310000Y-76606168D02*
X194405238Y-76701406D01*
X194214761Y-77653787D02*
X195548095Y-77653787D01*
X196214761Y-77653787D02*
X196119523Y-77558549D01*
X196119523Y-77558549D02*
X196024285Y-77653787D01*
X196024285Y-77653787D02*
X196119523Y-77749025D01*
X196119523Y-77749025D02*
X196214761Y-77653787D01*
X196214761Y-77653787D02*
X196024285Y-77653787D01*
X195548095Y-78606168D02*
X194214761Y-78606168D01*
X195357619Y-78606168D02*
X195452857Y-78701406D01*
X195452857Y-78701406D02*
X195548095Y-78891882D01*
X195548095Y-78891882D02*
X195548095Y-79177597D01*
X195548095Y-79177597D02*
X195452857Y-79368073D01*
X195452857Y-79368073D02*
X195262380Y-79463311D01*
X195262380Y-79463311D02*
X194214761Y-79463311D01*
X194214761Y-80701406D02*
X194310000Y-80510930D01*
X194310000Y-80510930D02*
X194405238Y-80415692D01*
X194405238Y-80415692D02*
X194595714Y-80320454D01*
X194595714Y-80320454D02*
X195167142Y-80320454D01*
X195167142Y-80320454D02*
X195357619Y-80415692D01*
X195357619Y-80415692D02*
X195452857Y-80510930D01*
X195452857Y-80510930D02*
X195548095Y-80701406D01*
X195548095Y-80701406D02*
X195548095Y-80987121D01*
X195548095Y-80987121D02*
X195452857Y-81177597D01*
X195452857Y-81177597D02*
X195357619Y-81272835D01*
X195357619Y-81272835D02*
X195167142Y-81368073D01*
X195167142Y-81368073D02*
X194595714Y-81368073D01*
X194595714Y-81368073D02*
X194405238Y-81272835D01*
X194405238Y-81272835D02*
X194310000Y-81177597D01*
X194310000Y-81177597D02*
X194214761Y-80987121D01*
X194214761Y-80987121D02*
X194214761Y-80701406D01*
X194214761Y-83749026D02*
X196214761Y-83749026D01*
X196214761Y-83749026D02*
X194214761Y-84891883D01*
X194214761Y-84891883D02*
X196214761Y-84891883D01*
X194214761Y-86701407D02*
X195262380Y-86701407D01*
X195262380Y-86701407D02*
X195452857Y-86606169D01*
X195452857Y-86606169D02*
X195548095Y-86415693D01*
X195548095Y-86415693D02*
X195548095Y-86034740D01*
X195548095Y-86034740D02*
X195452857Y-85844264D01*
X194310000Y-86701407D02*
X194214761Y-86510931D01*
X194214761Y-86510931D02*
X194214761Y-86034740D01*
X194214761Y-86034740D02*
X194310000Y-85844264D01*
X194310000Y-85844264D02*
X194500476Y-85749026D01*
X194500476Y-85749026D02*
X194690952Y-85749026D01*
X194690952Y-85749026D02*
X194881428Y-85844264D01*
X194881428Y-85844264D02*
X194976666Y-86034740D01*
X194976666Y-86034740D02*
X194976666Y-86510931D01*
X194976666Y-86510931D02*
X195071904Y-86701407D01*
X195548095Y-87653788D02*
X194214761Y-87653788D01*
X195357619Y-87653788D02*
X195452857Y-87749026D01*
X195452857Y-87749026D02*
X195548095Y-87939502D01*
X195548095Y-87939502D02*
X195548095Y-88225217D01*
X195548095Y-88225217D02*
X195452857Y-88415693D01*
X195452857Y-88415693D02*
X195262380Y-88510931D01*
X195262380Y-88510931D02*
X194214761Y-88510931D01*
X194214761Y-89749026D02*
X194310000Y-89558550D01*
X194310000Y-89558550D02*
X194405238Y-89463312D01*
X194405238Y-89463312D02*
X194595714Y-89368074D01*
X194595714Y-89368074D02*
X195167142Y-89368074D01*
X195167142Y-89368074D02*
X195357619Y-89463312D01*
X195357619Y-89463312D02*
X195452857Y-89558550D01*
X195452857Y-89558550D02*
X195548095Y-89749026D01*
X195548095Y-89749026D02*
X195548095Y-90034741D01*
X195548095Y-90034741D02*
X195452857Y-90225217D01*
X195452857Y-90225217D02*
X195357619Y-90320455D01*
X195357619Y-90320455D02*
X195167142Y-90415693D01*
X195167142Y-90415693D02*
X194595714Y-90415693D01*
X194595714Y-90415693D02*
X194405238Y-90320455D01*
X194405238Y-90320455D02*
X194310000Y-90225217D01*
X194310000Y-90225217D02*
X194214761Y-90034741D01*
X194214761Y-90034741D02*
X194214761Y-89749026D01*
D12*
G36*
X164953272Y-116397811D02*
G01*
X164953272Y-116290100D01*
X164594235Y-115864385D01*
X164594235Y-117936541D01*
X164591816Y-117966654D01*
X164583126Y-117998666D01*
X164568117Y-118028112D01*
X164549799Y-118051774D01*
X164543677Y-118058174D01*
X164520541Y-118077588D01*
X164491610Y-118093937D01*
X164460022Y-118104058D01*
X164430204Y-118107805D01*
X164421311Y-118108000D01*
X164390913Y-118105545D01*
X164358661Y-118096730D01*
X164329066Y-118081502D01*
X164305349Y-118062920D01*
X164298946Y-118056709D01*
X164279246Y-118033392D01*
X164262656Y-118004598D01*
X164252387Y-117973514D01*
X164248585Y-117944438D01*
X164248387Y-117935808D01*
X164248387Y-115388111D01*
X164695352Y-115388111D01*
X165121800Y-115978690D01*
X165561437Y-115388111D01*
X166000341Y-115388111D01*
X166000341Y-117935808D01*
X165997817Y-117966207D01*
X165990244Y-117994573D01*
X165975406Y-118024500D01*
X165957013Y-118048508D01*
X165947585Y-118058174D01*
X165923592Y-118077588D01*
X165897777Y-118092234D01*
X165870138Y-118102112D01*
X165840675Y-118107221D01*
X165823021Y-118108000D01*
X165793123Y-118105580D01*
X165761101Y-118096891D01*
X165731368Y-118081881D01*
X165707230Y-118063564D01*
X165700655Y-118057441D01*
X165680670Y-118034125D01*
X165663840Y-118005331D01*
X165653422Y-117974247D01*
X165649565Y-117945171D01*
X165649364Y-117936541D01*
X165649364Y-115872445D01*
X165299120Y-116274713D01*
X165299120Y-116394147D01*
X165297317Y-116425772D01*
X165291907Y-116455800D01*
X165282891Y-116484230D01*
X165270269Y-116511063D01*
X165254040Y-116536300D01*
X165247829Y-116544357D01*
X165224478Y-116568910D01*
X165199303Y-116587433D01*
X165172305Y-116599925D01*
X165143484Y-116606387D01*
X165126196Y-116607371D01*
X165095797Y-116604391D01*
X165067432Y-116595450D01*
X165041100Y-116580549D01*
X165016802Y-116559687D01*
X165003831Y-116545090D01*
X164986649Y-116520935D01*
X164971096Y-116490737D01*
X164960382Y-116458364D01*
X164955050Y-116428886D01*
X164953272Y-116397811D01*
G37*
G36*
X167484117Y-115200533D02*
G01*
X167665833Y-115200533D01*
X167696232Y-115203057D01*
X167724598Y-115210631D01*
X167754525Y-115225468D01*
X167778533Y-115243861D01*
X167788199Y-115253289D01*
X167807899Y-115277101D01*
X167822760Y-115303017D01*
X167832783Y-115331037D01*
X167837967Y-115361160D01*
X167838757Y-115379318D01*
X167838757Y-115533191D01*
X167836338Y-115564908D01*
X167829080Y-115594660D01*
X167816984Y-115622450D01*
X167800049Y-115648276D01*
X167788199Y-115662152D01*
X167765063Y-115683279D01*
X167739893Y-115699217D01*
X167708638Y-115711078D01*
X167679111Y-115715897D01*
X167665833Y-115716374D01*
X167479720Y-115716374D01*
X167448465Y-115713744D01*
X167419453Y-115705855D01*
X167392686Y-115692707D01*
X167368162Y-115674299D01*
X167355157Y-115661419D01*
X167335812Y-115636460D01*
X167321377Y-115610308D01*
X167310889Y-115578961D01*
X167306814Y-115546057D01*
X167306796Y-115537588D01*
X167311193Y-115379318D01*
X167313612Y-115347993D01*
X167320870Y-115318771D01*
X167332966Y-115291653D01*
X167349901Y-115266639D01*
X167361751Y-115253289D01*
X167384887Y-115232733D01*
X167410057Y-115217225D01*
X167441312Y-115205685D01*
X167470840Y-115200996D01*
X167484117Y-115200533D01*
G37*
G36*
X168189002Y-118108000D02*
G01*
X167133872Y-118108000D01*
X167103474Y-118105720D01*
X167071222Y-118097535D01*
X167041627Y-118083395D01*
X167017910Y-118066140D01*
X167011507Y-118060372D01*
X166991807Y-118038268D01*
X166975217Y-118010688D01*
X166964948Y-117980634D01*
X166960998Y-117948108D01*
X166960949Y-117943868D01*
X166964108Y-117911674D01*
X166973588Y-117881770D01*
X166989388Y-117854155D01*
X167011507Y-117828830D01*
X167034643Y-117809701D01*
X167063574Y-117793592D01*
X167095162Y-117783620D01*
X167124980Y-117779929D01*
X167133872Y-117779737D01*
X167488513Y-117779737D01*
X167488513Y-116466688D01*
X167137536Y-116466688D01*
X167107137Y-116464373D01*
X167074886Y-116456062D01*
X167045290Y-116441705D01*
X167021573Y-116424184D01*
X167015170Y-116418327D01*
X166995471Y-116396364D01*
X166978881Y-116369287D01*
X166968611Y-116340104D01*
X166964662Y-116308814D01*
X166964612Y-116304755D01*
X166967772Y-116271873D01*
X166977252Y-116241374D01*
X166993051Y-116213255D01*
X167012060Y-116190605D01*
X167015170Y-116187518D01*
X167038307Y-116168389D01*
X167067238Y-116152280D01*
X167098825Y-116142308D01*
X167128643Y-116138617D01*
X167137536Y-116138425D01*
X167665833Y-116138425D01*
X167696232Y-116140950D01*
X167724598Y-116148523D01*
X167754525Y-116163361D01*
X167778533Y-116181753D01*
X167788199Y-116191182D01*
X167807899Y-116214924D01*
X167822760Y-116240629D01*
X167832783Y-116268298D01*
X167837967Y-116297931D01*
X167838757Y-116315745D01*
X167838757Y-117779737D01*
X168184605Y-117779737D01*
X168215360Y-117782051D01*
X168244151Y-117788994D01*
X168274651Y-117802595D01*
X168299234Y-117819455D01*
X168309169Y-117828097D01*
X168329726Y-117849916D01*
X168347036Y-117877256D01*
X168357752Y-117907160D01*
X168361874Y-117939629D01*
X168361926Y-117943868D01*
X168358674Y-117976704D01*
X168348920Y-118007066D01*
X168332662Y-118034956D01*
X168313102Y-118057330D01*
X168309902Y-118060372D01*
X168286585Y-118078930D01*
X168257791Y-118094558D01*
X168226708Y-118104232D01*
X168193334Y-118107953D01*
X168189002Y-118108000D01*
G37*
G36*
X170901563Y-118108000D02*
G01*
X170161507Y-118108000D01*
X170125333Y-118106976D01*
X170090177Y-118103904D01*
X170056039Y-118098784D01*
X170022918Y-118091616D01*
X169990815Y-118082401D01*
X169959729Y-118071137D01*
X169929660Y-118057825D01*
X169900610Y-118042466D01*
X169872576Y-118025059D01*
X169845561Y-118005604D01*
X169828115Y-117991496D01*
X169491793Y-117702068D01*
X169463116Y-117676370D01*
X169437259Y-117649011D01*
X169414223Y-117619990D01*
X169394008Y-117589308D01*
X169376614Y-117556964D01*
X169362040Y-117522959D01*
X169350287Y-117487292D01*
X169341355Y-117449963D01*
X169335243Y-117410974D01*
X169331952Y-117370322D01*
X169331325Y-117342298D01*
X169331325Y-116895334D01*
X169331553Y-116854895D01*
X169335258Y-116815461D01*
X169342441Y-116777031D01*
X169353101Y-116739606D01*
X169367239Y-116703186D01*
X169384855Y-116667770D01*
X169405948Y-116633359D01*
X169430519Y-116599953D01*
X169458567Y-116567551D01*
X169479198Y-116546508D01*
X169501374Y-116525911D01*
X169513042Y-116515780D01*
X169815659Y-116257127D01*
X169843310Y-116235914D01*
X169871309Y-116216787D01*
X169899656Y-116199747D01*
X169928350Y-116184793D01*
X169957393Y-116171926D01*
X169986783Y-116161145D01*
X170016520Y-116152451D01*
X170046606Y-116145844D01*
X170077039Y-116141323D01*
X170107820Y-116138889D01*
X170128534Y-116138425D01*
X170905959Y-116138425D01*
X170936358Y-116140739D01*
X170968609Y-116149051D01*
X170998205Y-116163408D01*
X171021922Y-116180929D01*
X171028325Y-116186785D01*
X171048025Y-116208604D01*
X171064614Y-116235944D01*
X171074884Y-116265848D01*
X171078834Y-116298317D01*
X171078883Y-116302556D01*
X171076464Y-116332209D01*
X171067774Y-116363350D01*
X171052764Y-116391560D01*
X171031435Y-116416839D01*
X171028325Y-116419793D01*
X171005189Y-116438065D01*
X170976257Y-116453453D01*
X170944670Y-116462978D01*
X170914852Y-116466504D01*
X170905959Y-116466688D01*
X170161507Y-116466688D01*
X170131333Y-116469387D01*
X170101721Y-116477487D01*
X170072669Y-116490986D01*
X170044179Y-116509884D01*
X170028150Y-116523108D01*
X169749713Y-116763443D01*
X169726555Y-116786567D01*
X169708188Y-116812524D01*
X169694613Y-116841315D01*
X169685829Y-116872940D01*
X169681836Y-116907398D01*
X169681570Y-116919514D01*
X169681570Y-117347427D01*
X169684913Y-117380583D01*
X169694942Y-117411175D01*
X169711657Y-117439202D01*
X169731768Y-117461621D01*
X169735059Y-117464664D01*
X170039874Y-117727713D01*
X170066952Y-117747984D01*
X170097536Y-117763276D01*
X170126542Y-117772421D01*
X170158124Y-117777908D01*
X170192281Y-117779737D01*
X170901563Y-117779737D01*
X170931140Y-117782051D01*
X170962796Y-117790363D01*
X170992163Y-117804720D01*
X171015980Y-117822241D01*
X171022463Y-117828097D01*
X171042734Y-117849916D01*
X171059804Y-117877256D01*
X171070371Y-117907160D01*
X171074436Y-117939629D01*
X171074487Y-117943868D01*
X171071327Y-117976704D01*
X171061847Y-118007066D01*
X171046048Y-118034956D01*
X171027039Y-118057330D01*
X171023928Y-118060372D01*
X171000792Y-118078930D01*
X170971861Y-118094558D01*
X170940273Y-118104232D01*
X170910456Y-118107813D01*
X170901563Y-118108000D01*
G37*
G36*
X172977718Y-116139490D02*
G01*
X173021040Y-116144058D01*
X173064117Y-116152129D01*
X173092699Y-116159457D01*
X173121173Y-116168341D01*
X173149537Y-116178782D01*
X173177793Y-116190781D01*
X173205940Y-116204336D01*
X173233979Y-116219449D01*
X173261908Y-116236119D01*
X173289729Y-116254345D01*
X173317441Y-116274129D01*
X173345044Y-116295470D01*
X173372539Y-116318367D01*
X173386245Y-116330400D01*
X173412864Y-116355009D01*
X173437765Y-116379928D01*
X173460949Y-116405156D01*
X173482416Y-116430692D01*
X173502165Y-116456538D01*
X173520197Y-116482693D01*
X173536512Y-116509157D01*
X173551109Y-116535930D01*
X173563989Y-116563013D01*
X173575152Y-116590404D01*
X173588676Y-116632071D01*
X173598336Y-116674433D01*
X173604132Y-116717491D01*
X173606064Y-116761244D01*
X173606064Y-117485180D01*
X173604132Y-117528154D01*
X173598336Y-117570523D01*
X173588676Y-117612286D01*
X173575152Y-117653444D01*
X173563989Y-117680547D01*
X173551109Y-117707380D01*
X173536512Y-117733944D01*
X173520197Y-117760240D01*
X173502165Y-117786266D01*
X173482416Y-117812023D01*
X173460949Y-117837511D01*
X173437765Y-117862730D01*
X173412864Y-117887680D01*
X173386245Y-117912361D01*
X173358805Y-117936052D01*
X173331256Y-117958214D01*
X173303599Y-117978848D01*
X173275832Y-117997953D01*
X173247957Y-118015530D01*
X173219973Y-118031578D01*
X173191880Y-118046098D01*
X173163679Y-118059090D01*
X173135369Y-118070553D01*
X173106950Y-118080488D01*
X173078422Y-118088894D01*
X173049785Y-118095772D01*
X173006627Y-118103223D01*
X172963223Y-118107235D01*
X172934152Y-118108000D01*
X172528220Y-118108000D01*
X172498713Y-118107224D01*
X172469361Y-118104897D01*
X172440164Y-118101019D01*
X172411121Y-118095589D01*
X172382232Y-118088608D01*
X172353499Y-118080076D01*
X172324919Y-118069992D01*
X172296495Y-118058357D01*
X172268224Y-118045171D01*
X172240109Y-118030433D01*
X172212148Y-118014144D01*
X172184341Y-117996304D01*
X172156689Y-117976913D01*
X172129192Y-117955970D01*
X172101849Y-117933476D01*
X172074661Y-117909430D01*
X172048486Y-117884417D01*
X172024000Y-117859204D01*
X172001202Y-117833790D01*
X171980093Y-117808176D01*
X171960673Y-117782362D01*
X171942942Y-117756347D01*
X171926899Y-117730132D01*
X171912545Y-117703717D01*
X171899880Y-117677101D01*
X171884048Y-117636801D01*
X171872016Y-117596051D01*
X171863783Y-117554850D01*
X171859350Y-117513199D01*
X171858506Y-117485180D01*
X171858506Y-117477120D01*
X172208750Y-117477120D01*
X172211146Y-117511724D01*
X172218333Y-117543547D01*
X172230311Y-117572587D01*
X172247081Y-117598845D01*
X172268642Y-117622321D01*
X172276894Y-117629528D01*
X172406587Y-117742368D01*
X172433687Y-117760432D01*
X172462446Y-117771526D01*
X172491217Y-117777402D01*
X172523354Y-117779701D01*
X172528220Y-117779737D01*
X172929755Y-117779737D01*
X172962410Y-117777470D01*
X172993880Y-117770670D01*
X173024166Y-117759335D01*
X173053266Y-117743467D01*
X173081181Y-117723065D01*
X173090223Y-117715257D01*
X173195736Y-117620735D01*
X173217400Y-117600659D01*
X173237010Y-117573722D01*
X173250519Y-117542997D01*
X173257242Y-117513648D01*
X173259483Y-117481517D01*
X173259483Y-116771503D01*
X173257927Y-116740100D01*
X173251950Y-116705960D01*
X173241492Y-116675683D01*
X173226551Y-116649271D01*
X173207128Y-116626722D01*
X173195736Y-116616897D01*
X173074103Y-116518711D01*
X173050275Y-116501031D01*
X173020587Y-116485028D01*
X172988866Y-116474003D01*
X172960058Y-116468517D01*
X172929755Y-116466688D01*
X172571451Y-116466688D01*
X172536103Y-116468065D01*
X172503330Y-116472197D01*
X172473134Y-116479085D01*
X172440298Y-116490986D01*
X172411172Y-116506854D01*
X172389734Y-116523108D01*
X172272498Y-116625690D01*
X172250834Y-116647182D01*
X172233652Y-116670993D01*
X172219271Y-116701702D01*
X172211801Y-116730536D01*
X172208813Y-116761689D01*
X172208750Y-116767106D01*
X172208750Y-117477120D01*
X171858506Y-117477120D01*
X171858506Y-116761244D01*
X171860361Y-116719299D01*
X171865925Y-116677816D01*
X171875199Y-116636798D01*
X171888182Y-116596243D01*
X171904874Y-116556152D01*
X171918063Y-116529682D01*
X171932901Y-116503418D01*
X171949387Y-116477361D01*
X171967522Y-116451509D01*
X171987306Y-116425864D01*
X172008738Y-116400424D01*
X172031819Y-116375191D01*
X172056549Y-116350164D01*
X172069532Y-116337727D01*
X172096139Y-116313593D01*
X172123021Y-116291016D01*
X172150178Y-116269996D01*
X172177609Y-116250533D01*
X172205316Y-116232627D01*
X172233297Y-116216278D01*
X172261553Y-116201486D01*
X172290083Y-116188251D01*
X172318889Y-116176573D01*
X172347969Y-116166452D01*
X172377324Y-116157888D01*
X172406953Y-116150882D01*
X172436858Y-116145432D01*
X172467037Y-116141539D01*
X172497491Y-116139204D01*
X172528220Y-116138425D01*
X172934152Y-116138425D01*
X172977718Y-116139490D01*
G37*
G36*
X175664784Y-115389470D02*
G01*
X175703061Y-115393547D01*
X175740295Y-115400341D01*
X175776486Y-115409853D01*
X175811633Y-115422082D01*
X175845737Y-115437029D01*
X175878798Y-115454694D01*
X175910816Y-115475077D01*
X175941790Y-115498177D01*
X175971721Y-115523995D01*
X175991095Y-115542717D01*
X176018594Y-115572096D01*
X176043388Y-115602532D01*
X176065477Y-115634023D01*
X176084861Y-115666571D01*
X176101541Y-115700175D01*
X176115516Y-115734835D01*
X176126786Y-115770551D01*
X176135351Y-115807323D01*
X176141211Y-115845152D01*
X176144367Y-115884037D01*
X176144968Y-115910547D01*
X176144968Y-116558279D01*
X176143629Y-116597855D01*
X176139610Y-116636349D01*
X176132912Y-116673761D01*
X176123536Y-116710091D01*
X176111480Y-116745339D01*
X176096745Y-116779505D01*
X176079332Y-116812590D01*
X176059239Y-116844592D01*
X176036467Y-116875513D01*
X176011016Y-116905352D01*
X175992561Y-116924643D01*
X175963437Y-116951749D01*
X175933218Y-116976189D01*
X175901905Y-116997962D01*
X175869497Y-117017070D01*
X175835994Y-117033511D01*
X175801396Y-117047286D01*
X175765703Y-117058395D01*
X175728916Y-117066838D01*
X175691033Y-117072615D01*
X175652056Y-117075725D01*
X175625464Y-117076318D01*
X174747655Y-117076318D01*
X174747655Y-117937274D01*
X174745235Y-117967352D01*
X174736546Y-117999237D01*
X174721536Y-118028466D01*
X174703219Y-118051863D01*
X174697096Y-118058174D01*
X174673960Y-118077588D01*
X174645029Y-118093937D01*
X174613442Y-118104058D01*
X174583624Y-118107805D01*
X174574731Y-118108000D01*
X174543405Y-118105615D01*
X174514183Y-118098463D01*
X174487065Y-118086541D01*
X174462051Y-118069852D01*
X174448702Y-118058174D01*
X174428716Y-118035038D01*
X174413639Y-118009868D01*
X174402419Y-117978613D01*
X174397861Y-117949085D01*
X174397411Y-117935808D01*
X174397411Y-115716374D01*
X174747655Y-115716374D01*
X174747655Y-116748055D01*
X175626196Y-116748055D01*
X175655774Y-116745566D01*
X175687430Y-116736624D01*
X175716796Y-116721180D01*
X175740614Y-116702331D01*
X175747096Y-116696032D01*
X175767367Y-116671899D01*
X175782660Y-116645662D01*
X175792973Y-116617322D01*
X175798307Y-116586878D01*
X175799120Y-116568537D01*
X175799120Y-115895892D01*
X175796631Y-115864281D01*
X175789163Y-115834844D01*
X175776715Y-115807580D01*
X175759290Y-115782491D01*
X175747096Y-115769130D01*
X175723780Y-115748574D01*
X175698711Y-115733066D01*
X175667913Y-115721526D01*
X175634826Y-115716580D01*
X175626196Y-115716374D01*
X174747655Y-115716374D01*
X174397411Y-115716374D01*
X174397411Y-115388111D01*
X175625464Y-115388111D01*
X175664784Y-115389470D01*
G37*
G36*
X178200025Y-115389444D02*
G01*
X178238302Y-115393443D01*
X178275536Y-115400109D01*
X178311727Y-115409440D01*
X178346874Y-115421438D01*
X178380978Y-115436102D01*
X178414039Y-115453432D01*
X178446056Y-115473428D01*
X178477031Y-115496091D01*
X178506961Y-115521419D01*
X178526336Y-115539786D01*
X178553835Y-115568609D01*
X178578629Y-115598476D01*
X178600718Y-115629386D01*
X178620102Y-115661339D01*
X178636782Y-115694335D01*
X178650757Y-115728375D01*
X178662027Y-115763458D01*
X178670592Y-115799584D01*
X178676452Y-115836754D01*
X178679608Y-115874966D01*
X178680209Y-115901021D01*
X178680209Y-116094461D01*
X178678869Y-116133756D01*
X178674851Y-116171956D01*
X178668153Y-116209061D01*
X178658777Y-116245072D01*
X178646721Y-116279987D01*
X178631986Y-116313808D01*
X178614572Y-116346534D01*
X178594480Y-116378165D01*
X178571708Y-116408701D01*
X178546257Y-116438143D01*
X178527801Y-116457162D01*
X178498684Y-116484006D01*
X178468485Y-116508210D01*
X178437203Y-116529773D01*
X178404840Y-116548696D01*
X178371395Y-116564978D01*
X178336868Y-116578620D01*
X178301259Y-116589622D01*
X178264569Y-116597983D01*
X178226796Y-116603704D01*
X178187941Y-116606785D01*
X178161437Y-116607371D01*
X177940886Y-116607371D01*
X178649434Y-117829563D01*
X178663860Y-117856307D01*
X178675162Y-117886395D01*
X178681248Y-117916483D01*
X178682407Y-117936541D01*
X178679847Y-117966369D01*
X178670654Y-117998140D01*
X178654774Y-118027437D01*
X178635395Y-118051044D01*
X178628918Y-118057441D01*
X178604815Y-118077141D01*
X178579310Y-118092003D01*
X178548444Y-118103062D01*
X178515746Y-118107802D01*
X178507285Y-118108000D01*
X178476216Y-118101102D01*
X178447579Y-118090483D01*
X178421375Y-118076143D01*
X178397605Y-118058082D01*
X178376267Y-118036301D01*
X178357362Y-118010798D01*
X178350481Y-117999556D01*
X177536420Y-116607371D01*
X177287292Y-116607371D01*
X177287292Y-117934343D01*
X177284767Y-117965027D01*
X177277194Y-117993608D01*
X177264572Y-118020085D01*
X177246900Y-118044458D01*
X177234535Y-118057441D01*
X177210793Y-118077141D01*
X177185088Y-118092003D01*
X177157419Y-118102025D01*
X177127786Y-118107210D01*
X177109972Y-118108000D01*
X177079573Y-118105615D01*
X177047321Y-118097052D01*
X177017726Y-118082260D01*
X176994009Y-118064208D01*
X176987606Y-118058174D01*
X176967906Y-118035038D01*
X176951317Y-118006107D01*
X176941047Y-117974519D01*
X176937245Y-117944701D01*
X176937048Y-117935808D01*
X176937048Y-115716374D01*
X177282896Y-115716374D01*
X177282896Y-116279109D01*
X178161437Y-116279109D01*
X178191836Y-116276655D01*
X178224087Y-116267839D01*
X178253683Y-116252612D01*
X178277400Y-116234029D01*
X178283803Y-116227818D01*
X178303503Y-116203971D01*
X178318364Y-116177950D01*
X178328387Y-116149755D01*
X178333571Y-116119386D01*
X178334361Y-116101056D01*
X178334361Y-115894427D01*
X178331942Y-115862851D01*
X178324684Y-115833519D01*
X178312587Y-115806430D01*
X178295652Y-115781586D01*
X178283803Y-115768397D01*
X178260667Y-115748126D01*
X178235497Y-115732834D01*
X178204242Y-115721454D01*
X178174714Y-115716831D01*
X178161437Y-115716374D01*
X177282896Y-115716374D01*
X176937048Y-115716374D01*
X176937048Y-115388111D01*
X178160704Y-115388111D01*
X178200025Y-115389444D01*
G37*
G36*
X180373728Y-115389096D02*
G01*
X180407800Y-115392050D01*
X180440589Y-115396973D01*
X180472096Y-115403865D01*
X180502322Y-115412726D01*
X180531264Y-115423557D01*
X180558925Y-115436357D01*
X180585303Y-115451126D01*
X180610399Y-115467864D01*
X180634213Y-115486572D01*
X180656744Y-115507248D01*
X180677993Y-115529894D01*
X180697960Y-115554509D01*
X180716645Y-115581094D01*
X180734047Y-115609647D01*
X180750167Y-115640170D01*
X181131186Y-116411733D01*
X181145590Y-116441503D01*
X181158577Y-116471737D01*
X181170148Y-116502434D01*
X181180302Y-116533595D01*
X181189038Y-116565220D01*
X181196359Y-116597308D01*
X181202262Y-116629860D01*
X181206748Y-116662876D01*
X181209818Y-116696355D01*
X181211471Y-116730298D01*
X181211786Y-116753184D01*
X181211078Y-116786801D01*
X181208952Y-116820057D01*
X181205410Y-116852953D01*
X181200452Y-116885488D01*
X181194076Y-116917662D01*
X181186284Y-116949476D01*
X181177074Y-116980928D01*
X181166448Y-117012021D01*
X181154406Y-117042752D01*
X181140946Y-117073123D01*
X181131186Y-117093170D01*
X180750167Y-117855941D01*
X180734305Y-117886464D01*
X180717126Y-117915017D01*
X180698630Y-117941601D01*
X180678818Y-117966217D01*
X180657689Y-117988862D01*
X180635243Y-118009539D01*
X180611481Y-118028247D01*
X180586402Y-118044985D01*
X180560007Y-118059754D01*
X180532295Y-118072554D01*
X180503266Y-118083384D01*
X180472921Y-118092246D01*
X180441259Y-118099138D01*
X180408280Y-118104061D01*
X180373985Y-118107015D01*
X180338374Y-118108000D01*
X180304187Y-118106878D01*
X180270871Y-118103512D01*
X180238425Y-118097902D01*
X180206849Y-118090048D01*
X180176143Y-118079950D01*
X180146307Y-118067608D01*
X180117341Y-118053022D01*
X180089246Y-118036192D01*
X180062616Y-118017668D01*
X180037680Y-117997999D01*
X180014439Y-117977185D01*
X179992892Y-117955226D01*
X179973040Y-117932122D01*
X179954882Y-117907873D01*
X179938418Y-117882479D01*
X179923649Y-117855941D01*
X179540432Y-117093170D01*
X179526814Y-117064783D01*
X179514535Y-117035674D01*
X179503595Y-117005844D01*
X179493995Y-116975293D01*
X179485735Y-116944020D01*
X179478814Y-116912026D01*
X179473233Y-116879311D01*
X179468991Y-116845875D01*
X179466089Y-116811717D01*
X179464526Y-116776838D01*
X179464228Y-116753184D01*
X179464311Y-116748788D01*
X179814473Y-116748788D01*
X179815671Y-116784258D01*
X179819267Y-116819227D01*
X179825260Y-116853696D01*
X179833650Y-116887663D01*
X179844437Y-116921130D01*
X179857621Y-116954095D01*
X179863565Y-116967141D01*
X180232861Y-117710861D01*
X180247642Y-117737698D01*
X180270116Y-117760298D01*
X180298544Y-117774289D01*
X180328301Y-117779468D01*
X180337641Y-117779737D01*
X180368690Y-117775432D01*
X180395893Y-117762518D01*
X180419248Y-117740994D01*
X180436529Y-117715098D01*
X180438757Y-117710861D01*
X180809518Y-116967141D01*
X180821539Y-116939687D01*
X180831958Y-116912278D01*
X180842727Y-116878082D01*
X180850992Y-116843957D01*
X180856752Y-116809904D01*
X180860008Y-116775922D01*
X180860809Y-116748788D01*
X180859557Y-116713372D01*
X180855800Y-116678563D01*
X180849539Y-116644364D01*
X180840773Y-116610772D01*
X180829503Y-116577788D01*
X180815729Y-116545413D01*
X180809518Y-116532633D01*
X180446817Y-115797706D01*
X180432263Y-115770066D01*
X180411832Y-115745047D01*
X180387684Y-115727811D01*
X180359819Y-115718359D01*
X180337641Y-115716374D01*
X180306841Y-115720265D01*
X180279197Y-115731941D01*
X180254709Y-115751401D01*
X180236230Y-115774276D01*
X180222602Y-115797706D01*
X179863565Y-116532633D01*
X179852059Y-116560213D01*
X179839834Y-116594464D01*
X179830006Y-116628463D01*
X179822575Y-116662212D01*
X179817541Y-116695711D01*
X179814904Y-116728959D01*
X179814473Y-116748788D01*
X179464311Y-116748788D01*
X179464898Y-116717812D01*
X179466907Y-116683134D01*
X179470256Y-116649153D01*
X179474945Y-116615867D01*
X179480972Y-116583276D01*
X179488340Y-116551381D01*
X179497047Y-116520181D01*
X179507093Y-116489677D01*
X179518479Y-116459868D01*
X179531204Y-116430755D01*
X179540432Y-116411733D01*
X179923649Y-115640170D01*
X179940468Y-115609647D01*
X179958500Y-115581094D01*
X179977745Y-115554509D01*
X179998204Y-115529894D01*
X180019877Y-115507248D01*
X180042763Y-115486572D01*
X180066863Y-115467864D01*
X180092177Y-115451126D01*
X180118704Y-115436357D01*
X180146444Y-115423557D01*
X180175399Y-115412726D01*
X180205566Y-115403865D01*
X180236948Y-115396973D01*
X180269543Y-115392050D01*
X180303351Y-115389096D01*
X180338374Y-115388111D01*
X180373728Y-115389096D01*
G37*
G36*
X182699958Y-116397811D02*
G01*
X182699958Y-116290100D01*
X182340921Y-115864385D01*
X182340921Y-117936541D01*
X182338501Y-117966654D01*
X182329812Y-117998666D01*
X182314802Y-118028112D01*
X182296485Y-118051774D01*
X182290362Y-118058174D01*
X182267226Y-118077588D01*
X182238295Y-118093937D01*
X182206708Y-118104058D01*
X182176890Y-118107805D01*
X182167997Y-118108000D01*
X182137598Y-118105545D01*
X182105346Y-118096730D01*
X182075751Y-118081502D01*
X182052034Y-118062920D01*
X182045631Y-118056709D01*
X182025931Y-118033392D01*
X182009342Y-118004598D01*
X181999072Y-117973514D01*
X181995270Y-117944438D01*
X181995073Y-117935808D01*
X181995073Y-115388111D01*
X182442037Y-115388111D01*
X182868485Y-115978690D01*
X183308122Y-115388111D01*
X183747027Y-115388111D01*
X183747027Y-117935808D01*
X183744502Y-117966207D01*
X183736929Y-117994573D01*
X183722091Y-118024500D01*
X183703698Y-118048508D01*
X183694270Y-118058174D01*
X183670278Y-118077588D01*
X183644462Y-118092234D01*
X183616823Y-118102112D01*
X183587361Y-118107221D01*
X183569706Y-118108000D01*
X183539808Y-118105580D01*
X183507786Y-118096891D01*
X183478053Y-118081881D01*
X183453915Y-118063564D01*
X183447341Y-118057441D01*
X183427355Y-118034125D01*
X183410525Y-118005331D01*
X183400107Y-117974247D01*
X183396250Y-117945171D01*
X183396050Y-117936541D01*
X183396050Y-115872445D01*
X183045806Y-116274713D01*
X183045806Y-116394147D01*
X183044002Y-116425772D01*
X183038593Y-116455800D01*
X183029577Y-116484230D01*
X183016954Y-116511063D01*
X183000726Y-116536300D01*
X182994515Y-116544357D01*
X182971163Y-116568910D01*
X182945988Y-116587433D01*
X182918991Y-116599925D01*
X182890169Y-116606387D01*
X182872882Y-116607371D01*
X182842483Y-116604391D01*
X182814117Y-116595450D01*
X182787786Y-116580549D01*
X182763487Y-116559687D01*
X182750516Y-116545090D01*
X182733334Y-116520935D01*
X182717781Y-116490737D01*
X182707067Y-116458364D01*
X182701735Y-116428886D01*
X182699958Y-116397811D01*
G37*
G36*
X188825568Y-115563966D02*
G01*
X188825568Y-116196311D01*
X188120683Y-117968781D01*
X188106338Y-118001410D01*
X188090046Y-118029689D01*
X188071808Y-118053617D01*
X188046274Y-118077410D01*
X188017698Y-118094404D01*
X187986081Y-118104601D01*
X187951423Y-118108000D01*
X187922114Y-118105801D01*
X187888569Y-118096871D01*
X187858458Y-118081072D01*
X187831782Y-118058403D01*
X187812914Y-118035322D01*
X187796245Y-118007845D01*
X187781774Y-117975971D01*
X187778499Y-117967316D01*
X187078011Y-116196311D01*
X187078011Y-115563966D01*
X187080430Y-115532961D01*
X187087688Y-115504060D01*
X187099784Y-115477262D01*
X187116719Y-115452568D01*
X187128569Y-115439402D01*
X187151705Y-115419417D01*
X187176875Y-115404340D01*
X187208130Y-115393120D01*
X187237657Y-115388562D01*
X187250935Y-115388111D01*
X187281334Y-115390566D01*
X187313585Y-115399381D01*
X187343180Y-115414608D01*
X187366897Y-115433191D01*
X187373300Y-115439402D01*
X187393000Y-115462894D01*
X187407862Y-115488489D01*
X187417884Y-115516188D01*
X187423069Y-115545991D01*
X187423859Y-115563966D01*
X187423859Y-116124503D01*
X187951423Y-117454406D01*
X188478988Y-116128900D01*
X188478988Y-115563966D01*
X188481407Y-115532961D01*
X188488665Y-115504060D01*
X188500761Y-115477262D01*
X188517696Y-115452568D01*
X188529546Y-115439402D01*
X188552682Y-115419417D01*
X188577852Y-115404340D01*
X188609107Y-115393120D01*
X188638634Y-115388562D01*
X188651912Y-115388111D01*
X188682596Y-115390566D01*
X188711177Y-115397929D01*
X188741264Y-115412354D01*
X188765337Y-115430236D01*
X188775010Y-115439402D01*
X188794710Y-115462894D01*
X188809571Y-115488489D01*
X188819594Y-115516188D01*
X188824778Y-115545991D01*
X188825568Y-115563966D01*
G37*
G36*
X191352749Y-115728097D02*
G01*
X191352749Y-116364838D01*
X191351512Y-116405726D01*
X191347803Y-116445132D01*
X191341621Y-116483057D01*
X191332965Y-116519501D01*
X191321837Y-116554464D01*
X191308236Y-116587946D01*
X191292161Y-116619946D01*
X191273614Y-116650465D01*
X191252594Y-116679503D01*
X191229101Y-116707060D01*
X191212065Y-116724608D01*
X191237862Y-116755228D01*
X191261121Y-116786363D01*
X191281842Y-116818014D01*
X191300027Y-116850179D01*
X191315674Y-116882860D01*
X191328784Y-116916056D01*
X191339356Y-116949767D01*
X191347391Y-116983994D01*
X191352889Y-117018736D01*
X191355849Y-117053992D01*
X191356413Y-117077783D01*
X191356413Y-117759221D01*
X191354798Y-117794323D01*
X191349955Y-117828189D01*
X191341884Y-117860818D01*
X191330584Y-117892211D01*
X191316055Y-117922367D01*
X191298298Y-117951287D01*
X191277312Y-117978971D01*
X191253098Y-118005418D01*
X191226800Y-118029460D01*
X191199197Y-118050297D01*
X191170288Y-118067928D01*
X191140075Y-118082354D01*
X191108556Y-118093574D01*
X191075732Y-118101588D01*
X191041603Y-118106397D01*
X191006168Y-118108000D01*
X189781779Y-118108000D01*
X189751380Y-118105720D01*
X189719129Y-118097535D01*
X189689533Y-118083395D01*
X189665816Y-118066140D01*
X189659413Y-118060372D01*
X189639713Y-118038268D01*
X189623124Y-118010688D01*
X189612854Y-117980634D01*
X189608904Y-117948108D01*
X189608855Y-117943868D01*
X189612015Y-117911079D01*
X189621495Y-117880854D01*
X189637294Y-117853193D01*
X189659413Y-117828097D01*
X189682549Y-117809254D01*
X189711481Y-117793386D01*
X189743068Y-117783562D01*
X189772886Y-117779926D01*
X189781779Y-117779737D01*
X191001772Y-117779737D01*
X191001772Y-117074120D01*
X190999353Y-117042083D01*
X190992095Y-117012009D01*
X190979998Y-116983899D01*
X190963063Y-116957753D01*
X190951214Y-116943694D01*
X190928078Y-116922281D01*
X190902908Y-116906127D01*
X190871653Y-116894106D01*
X190842125Y-116889222D01*
X190828848Y-116888739D01*
X190132023Y-116888739D01*
X190101624Y-116886495D01*
X190069373Y-116878435D01*
X190039777Y-116864513D01*
X190012838Y-116844730D01*
X190009658Y-116841845D01*
X189987538Y-116816932D01*
X189971739Y-116789088D01*
X189962259Y-116758314D01*
X189959149Y-116728981D01*
X189959099Y-116724608D01*
X189962259Y-116691818D01*
X189971739Y-116661593D01*
X189987538Y-116633933D01*
X190009658Y-116608837D01*
X190032794Y-116589993D01*
X190061725Y-116574125D01*
X190093312Y-116564302D01*
X190123130Y-116560666D01*
X190132023Y-116560477D01*
X190833244Y-116560477D01*
X190862822Y-116558058D01*
X190894478Y-116549368D01*
X190923844Y-116534358D01*
X190947662Y-116516041D01*
X190954145Y-116509919D01*
X190974416Y-116486747D01*
X190989708Y-116461473D01*
X191001088Y-116430011D01*
X191005711Y-116400228D01*
X191006168Y-116386820D01*
X191006168Y-115716374D01*
X189769323Y-115716374D01*
X189738924Y-115714094D01*
X189706672Y-115705909D01*
X189677077Y-115691769D01*
X189653360Y-115674514D01*
X189646957Y-115668746D01*
X189627257Y-115646642D01*
X189610668Y-115619062D01*
X189600398Y-115589008D01*
X189596448Y-115556482D01*
X189596399Y-115552242D01*
X189599559Y-115519453D01*
X189609038Y-115489228D01*
X189624838Y-115461567D01*
X189646957Y-115436471D01*
X189670093Y-115417628D01*
X189699024Y-115401760D01*
X189730612Y-115391937D01*
X189760430Y-115388300D01*
X189769323Y-115388111D01*
X191006168Y-115388111D01*
X191041580Y-115389680D01*
X191075640Y-115394385D01*
X191108350Y-115402228D01*
X191139708Y-115413207D01*
X191169716Y-115427324D01*
X191198372Y-115444577D01*
X191225678Y-115464968D01*
X191251632Y-115488495D01*
X191275332Y-115514037D01*
X191295871Y-115540839D01*
X191313250Y-115568900D01*
X191327470Y-115598221D01*
X191338529Y-115628801D01*
X191346429Y-115660640D01*
X191351169Y-115693739D01*
X191352749Y-115728097D01*
G37*
X130670493Y-60083819D02*
X130670493Y-60798104D01*
X130670493Y-60798104D02*
X130622874Y-60940961D01*
X130622874Y-60940961D02*
X130527636Y-61036200D01*
X130527636Y-61036200D02*
X130384779Y-61083819D01*
X130384779Y-61083819D02*
X130289541Y-61083819D01*
X131622874Y-61083819D02*
X131146684Y-61083819D01*
X131146684Y-61083819D02*
X131146684Y-60083819D01*
X132527636Y-60988580D02*
X132480017Y-61036200D01*
X132480017Y-61036200D02*
X132337160Y-61083819D01*
X132337160Y-61083819D02*
X132241922Y-61083819D01*
X132241922Y-61083819D02*
X132099065Y-61036200D01*
X132099065Y-61036200D02*
X132003827Y-60940961D01*
X132003827Y-60940961D02*
X131956208Y-60845723D01*
X131956208Y-60845723D02*
X131908589Y-60655247D01*
X131908589Y-60655247D02*
X131908589Y-60512390D01*
X131908589Y-60512390D02*
X131956208Y-60321914D01*
X131956208Y-60321914D02*
X132003827Y-60226676D01*
X132003827Y-60226676D02*
X132099065Y-60131438D01*
X132099065Y-60131438D02*
X132241922Y-60083819D01*
X132241922Y-60083819D02*
X132337160Y-60083819D01*
X132337160Y-60083819D02*
X132480017Y-60131438D01*
X132480017Y-60131438D02*
X132527636Y-60179057D01*
X133241922Y-60083819D02*
X133241922Y-60798104D01*
X133241922Y-60798104D02*
X133194303Y-60940961D01*
X133194303Y-60940961D02*
X133099065Y-61036200D01*
X133099065Y-61036200D02*
X132956208Y-61083819D01*
X132956208Y-61083819D02*
X132860970Y-61083819D01*
X134194303Y-61083819D02*
X133718113Y-61083819D01*
X133718113Y-61083819D02*
X133718113Y-60083819D01*
X135099065Y-60988580D02*
X135051446Y-61036200D01*
X135051446Y-61036200D02*
X134908589Y-61083819D01*
X134908589Y-61083819D02*
X134813351Y-61083819D01*
X134813351Y-61083819D02*
X134670494Y-61036200D01*
X134670494Y-61036200D02*
X134575256Y-60940961D01*
X134575256Y-60940961D02*
X134527637Y-60845723D01*
X134527637Y-60845723D02*
X134480018Y-60655247D01*
X134480018Y-60655247D02*
X134480018Y-60512390D01*
X134480018Y-60512390D02*
X134527637Y-60321914D01*
X134527637Y-60321914D02*
X134575256Y-60226676D01*
X134575256Y-60226676D02*
X134670494Y-60131438D01*
X134670494Y-60131438D02*
X134813351Y-60083819D01*
X134813351Y-60083819D02*
X134908589Y-60083819D01*
X134908589Y-60083819D02*
X135051446Y-60131438D01*
X135051446Y-60131438D02*
X135099065Y-60179057D01*
X135813351Y-60083819D02*
X135813351Y-60798104D01*
X135813351Y-60798104D02*
X135765732Y-60940961D01*
X135765732Y-60940961D02*
X135670494Y-61036200D01*
X135670494Y-61036200D02*
X135527637Y-61083819D01*
X135527637Y-61083819D02*
X135432399Y-61083819D01*
X136765732Y-61083819D02*
X136289542Y-61083819D01*
X136289542Y-61083819D02*
X136289542Y-60083819D01*
X137670494Y-60988580D02*
X137622875Y-61036200D01*
X137622875Y-61036200D02*
X137480018Y-61083819D01*
X137480018Y-61083819D02*
X137384780Y-61083819D01*
X137384780Y-61083819D02*
X137241923Y-61036200D01*
X137241923Y-61036200D02*
X137146685Y-60940961D01*
X137146685Y-60940961D02*
X137099066Y-60845723D01*
X137099066Y-60845723D02*
X137051447Y-60655247D01*
X137051447Y-60655247D02*
X137051447Y-60512390D01*
X137051447Y-60512390D02*
X137099066Y-60321914D01*
X137099066Y-60321914D02*
X137146685Y-60226676D01*
X137146685Y-60226676D02*
X137241923Y-60131438D01*
X137241923Y-60131438D02*
X137384780Y-60083819D01*
X137384780Y-60083819D02*
X137480018Y-60083819D01*
X137480018Y-60083819D02*
X137622875Y-60131438D01*
X137622875Y-60131438D02*
X137670494Y-60179057D01*
X138384780Y-60083819D02*
X138384780Y-60798104D01*
X138384780Y-60798104D02*
X138337161Y-60940961D01*
X138337161Y-60940961D02*
X138241923Y-61036200D01*
X138241923Y-61036200D02*
X138099066Y-61083819D01*
X138099066Y-61083819D02*
X138003828Y-61083819D01*
X139337161Y-61083819D02*
X138860971Y-61083819D01*
X138860971Y-61083819D02*
X138860971Y-60083819D01*
X140241923Y-60988580D02*
X140194304Y-61036200D01*
X140194304Y-61036200D02*
X140051447Y-61083819D01*
X140051447Y-61083819D02*
X139956209Y-61083819D01*
X139956209Y-61083819D02*
X139813352Y-61036200D01*
X139813352Y-61036200D02*
X139718114Y-60940961D01*
X139718114Y-60940961D02*
X139670495Y-60845723D01*
X139670495Y-60845723D02*
X139622876Y-60655247D01*
X139622876Y-60655247D02*
X139622876Y-60512390D01*
X139622876Y-60512390D02*
X139670495Y-60321914D01*
X139670495Y-60321914D02*
X139718114Y-60226676D01*
X139718114Y-60226676D02*
X139813352Y-60131438D01*
X139813352Y-60131438D02*
X139956209Y-60083819D01*
X139956209Y-60083819D02*
X140051447Y-60083819D01*
X140051447Y-60083819D02*
X140194304Y-60131438D01*
X140194304Y-60131438D02*
X140241923Y-60179057D01*
X153416095Y-58506819D02*
X153416095Y-59316342D01*
X153416095Y-59316342D02*
X153463714Y-59411580D01*
X153463714Y-59411580D02*
X153511333Y-59459200D01*
X153511333Y-59459200D02*
X153606571Y-59506819D01*
X153606571Y-59506819D02*
X153797047Y-59506819D01*
X153797047Y-59506819D02*
X153892285Y-59459200D01*
X153892285Y-59459200D02*
X153939904Y-59411580D01*
X153939904Y-59411580D02*
X153987523Y-59316342D01*
X153987523Y-59316342D02*
X153987523Y-58506819D01*
X154368476Y-58506819D02*
X154987523Y-58506819D01*
X154987523Y-58506819D02*
X154654190Y-58887771D01*
X154654190Y-58887771D02*
X154797047Y-58887771D01*
X154797047Y-58887771D02*
X154892285Y-58935390D01*
X154892285Y-58935390D02*
X154939904Y-58983009D01*
X154939904Y-58983009D02*
X154987523Y-59078247D01*
X154987523Y-59078247D02*
X154987523Y-59316342D01*
X154987523Y-59316342D02*
X154939904Y-59411580D01*
X154939904Y-59411580D02*
X154892285Y-59459200D01*
X154892285Y-59459200D02*
X154797047Y-59506819D01*
X154797047Y-59506819D02*
X154511333Y-59506819D01*
X154511333Y-59506819D02*
X154416095Y-59459200D01*
X154416095Y-59459200D02*
X154368476Y-59411580D01*
X160020095Y-113840819D02*
X160020095Y-112840819D01*
X160020095Y-113317009D02*
X160591523Y-113317009D01*
X160591523Y-113840819D02*
X160591523Y-112840819D01*
X161496285Y-113174152D02*
X161496285Y-113840819D01*
X161258190Y-112793200D02*
X161020095Y-113507485D01*
X161020095Y-113507485D02*
X161639142Y-113507485D01*
X183181714Y-111421104D02*
X183657904Y-111421104D01*
X183086476Y-111706819D02*
X183419809Y-110706819D01*
X183419809Y-110706819D02*
X183753142Y-111706819D01*
X184610285Y-111706819D02*
X184038857Y-111706819D01*
X184324571Y-111706819D02*
X184324571Y-110706819D01*
X184324571Y-110706819D02*
X184229333Y-110849676D01*
X184229333Y-110849676D02*
X184134095Y-110944914D01*
X184134095Y-110944914D02*
X184038857Y-110992533D01*
X185157904Y-71157180D02*
X185157904Y-70347657D01*
X185157904Y-70347657D02*
X185110285Y-70252419D01*
X185110285Y-70252419D02*
X185062666Y-70204800D01*
X185062666Y-70204800D02*
X184967428Y-70157180D01*
X184967428Y-70157180D02*
X184776952Y-70157180D01*
X184776952Y-70157180D02*
X184681714Y-70204800D01*
X184681714Y-70204800D02*
X184634095Y-70252419D01*
X184634095Y-70252419D02*
X184586476Y-70347657D01*
X184586476Y-70347657D02*
X184586476Y-71157180D01*
X184157904Y-70204800D02*
X184015047Y-70157180D01*
X184015047Y-70157180D02*
X183776952Y-70157180D01*
X183776952Y-70157180D02*
X183681714Y-70204800D01*
X183681714Y-70204800D02*
X183634095Y-70252419D01*
X183634095Y-70252419D02*
X183586476Y-70347657D01*
X183586476Y-70347657D02*
X183586476Y-70442895D01*
X183586476Y-70442895D02*
X183634095Y-70538133D01*
X183634095Y-70538133D02*
X183681714Y-70585752D01*
X183681714Y-70585752D02*
X183776952Y-70633371D01*
X183776952Y-70633371D02*
X183967428Y-70680990D01*
X183967428Y-70680990D02*
X184062666Y-70728609D01*
X184062666Y-70728609D02*
X184110285Y-70776228D01*
X184110285Y-70776228D02*
X184157904Y-70871466D01*
X184157904Y-70871466D02*
X184157904Y-70966704D01*
X184157904Y-70966704D02*
X184110285Y-71061942D01*
X184110285Y-71061942D02*
X184062666Y-71109561D01*
X184062666Y-71109561D02*
X183967428Y-71157180D01*
X183967428Y-71157180D02*
X183729333Y-71157180D01*
X183729333Y-71157180D02*
X183586476Y-71109561D01*
X182824571Y-70680990D02*
X182681714Y-70633371D01*
X182681714Y-70633371D02*
X182634095Y-70585752D01*
X182634095Y-70585752D02*
X182586476Y-70490514D01*
X182586476Y-70490514D02*
X182586476Y-70347657D01*
X182586476Y-70347657D02*
X182634095Y-70252419D01*
X182634095Y-70252419D02*
X182681714Y-70204800D01*
X182681714Y-70204800D02*
X182776952Y-70157180D01*
X182776952Y-70157180D02*
X183157904Y-70157180D01*
X183157904Y-70157180D02*
X183157904Y-71157180D01*
X183157904Y-71157180D02*
X182824571Y-71157180D01*
X182824571Y-71157180D02*
X182729333Y-71109561D01*
X182729333Y-71109561D02*
X182681714Y-71061942D01*
X182681714Y-71061942D02*
X182634095Y-70966704D01*
X182634095Y-70966704D02*
X182634095Y-70871466D01*
X182634095Y-70871466D02*
X182681714Y-70776228D01*
X182681714Y-70776228D02*
X182729333Y-70728609D01*
X182729333Y-70728609D02*
X182824571Y-70680990D01*
X182824571Y-70680990D02*
X183157904Y-70680990D01*
X129286095Y-116592819D02*
X129286095Y-117402342D01*
X129286095Y-117402342D02*
X129333714Y-117497580D01*
X129333714Y-117497580D02*
X129381333Y-117545200D01*
X129381333Y-117545200D02*
X129476571Y-117592819D01*
X129476571Y-117592819D02*
X129667047Y-117592819D01*
X129667047Y-117592819D02*
X129762285Y-117545200D01*
X129762285Y-117545200D02*
X129809904Y-117497580D01*
X129809904Y-117497580D02*
X129857523Y-117402342D01*
X129857523Y-117402342D02*
X129857523Y-116592819D01*
X130286095Y-116688057D02*
X130333714Y-116640438D01*
X130333714Y-116640438D02*
X130428952Y-116592819D01*
X130428952Y-116592819D02*
X130667047Y-116592819D01*
X130667047Y-116592819D02*
X130762285Y-116640438D01*
X130762285Y-116640438D02*
X130809904Y-116688057D01*
X130809904Y-116688057D02*
X130857523Y-116783295D01*
X130857523Y-116783295D02*
X130857523Y-116878533D01*
X130857523Y-116878533D02*
X130809904Y-117021390D01*
X130809904Y-117021390D02*
X130238476Y-117592819D01*
X130238476Y-117592819D02*
X130857523Y-117592819D01*
X129540095Y-92716819D02*
X129540095Y-93526342D01*
X129540095Y-93526342D02*
X129587714Y-93621580D01*
X129587714Y-93621580D02*
X129635333Y-93669200D01*
X129635333Y-93669200D02*
X129730571Y-93716819D01*
X129730571Y-93716819D02*
X129921047Y-93716819D01*
X129921047Y-93716819D02*
X130016285Y-93669200D01*
X130016285Y-93669200D02*
X130063904Y-93621580D01*
X130063904Y-93621580D02*
X130111523Y-93526342D01*
X130111523Y-93526342D02*
X130111523Y-92716819D01*
X131111523Y-93716819D02*
X130540095Y-93716819D01*
X130825809Y-93716819D02*
X130825809Y-92716819D01*
X130825809Y-92716819D02*
X130730571Y-92859676D01*
X130730571Y-92859676D02*
X130635333Y-92954914D01*
X130635333Y-92954914D02*
X130540095Y-93002533D01*
D13*
%TO.C,U3*%
X142628000Y-66712000D02*
X142628000Y-110552000D01*
X165728000Y-110552000D02*
X165728000Y-59952000D01*
X141608000Y-71882000D02*
X141608000Y-69342000D01*
X165728000Y-59952000D02*
X142628000Y-59952000D01*
X142628000Y-59952000D02*
X142628000Y-61812000D01*
X142628000Y-110552000D02*
X165728000Y-110552000D01*
X144908000Y-59952000D02*
X144908000Y-62212000D01*
X144258000Y-64262000D02*
G75*
G03*
X144258000Y-64262000I-900000J0D01*
G01*
X145908000Y-64262000D02*
G75*
G03*
X145908000Y-64262000I-2550000J0D01*
G01*
%TO.C,A1*%
X192916000Y-110112000D02*
X192916000Y-107442000D01*
X192916000Y-104902000D02*
X192916000Y-66672000D01*
X192916000Y-66672000D02*
X187836000Y-66672000D01*
X190246000Y-107442000D02*
X192916000Y-107442000D01*
X190246000Y-104902000D02*
X192916000Y-104902000D01*
X190246000Y-104902000D02*
X190246000Y-107442000D01*
X190246000Y-104902000D02*
X190246000Y-69342000D01*
X190246000Y-69342000D02*
X192916000Y-69342000D01*
X187836000Y-74552000D02*
X179956000Y-74552000D01*
X187836000Y-64132000D02*
X187836000Y-74552000D01*
X179956000Y-74552000D02*
X179956000Y-64132000D01*
X179956000Y-64132000D02*
X187836000Y-64132000D01*
X177546000Y-107442000D02*
X177546000Y-69342000D01*
X177546000Y-107442000D02*
X174876000Y-107442000D01*
X177546000Y-69342000D02*
X174876000Y-69342000D01*
X174876000Y-110112000D02*
X192916000Y-110112000D01*
X174876000Y-66672000D02*
X179956000Y-66672000D01*
X174876000Y-66672000D02*
X174876000Y-110112000D01*
%TO.C,U2*%
X131048000Y-116138000D02*
G75*
G03*
X129048000Y-116138000I-1000000J0D01*
G01*
X124798000Y-95638000D02*
X124798000Y-116198000D01*
X124798000Y-116198000D02*
X135298000Y-116198000D01*
X127798000Y-95698000D02*
X127798000Y-116138000D01*
X127798000Y-116138000D02*
X129048000Y-116138000D01*
X131048000Y-116138000D02*
X132298000Y-116138000D01*
X132298000Y-95698000D02*
X127798000Y-95698000D01*
X132298000Y-116138000D02*
X132298000Y-95698000D01*
X135298000Y-95638000D02*
X124798000Y-95638000D01*
X135298000Y-116198000D02*
X135298000Y-95638000D01*
%TO.C,U1*%
X131302000Y-92262000D02*
G75*
G03*
X129302000Y-92262000I-1000000J0D01*
G01*
X125052000Y-71762000D02*
X125052000Y-92322000D01*
X125052000Y-92322000D02*
X135552000Y-92322000D01*
X128052000Y-71822000D02*
X128052000Y-92262000D01*
X128052000Y-92262000D02*
X129302000Y-92262000D01*
X131302000Y-92262000D02*
X132552000Y-92262000D01*
X132552000Y-71822000D02*
X128052000Y-71822000D01*
X132552000Y-92262000D02*
X132552000Y-71822000D01*
X135552000Y-71762000D02*
X125052000Y-71762000D01*
X135552000Y-92322000D02*
X135552000Y-71762000D01*
%TD*%
%LPC*%
D14*
%TO.C,U3*%
X146558000Y-70612000D03*
D15*
X146558000Y-73152000D03*
X146558000Y-75692000D03*
X146558000Y-78232000D03*
X146558000Y-80772000D03*
X146558000Y-83312000D03*
X146558000Y-85852000D03*
X146558000Y-88392000D03*
X146558000Y-90932000D03*
X146558000Y-93472000D03*
X146558000Y-96012000D03*
X146558000Y-98552000D03*
X146558000Y-101092000D03*
X146558000Y-103632000D03*
X161798000Y-103632000D03*
X161798000Y-101092000D03*
X161798000Y-98552000D03*
X161798000Y-96012000D03*
X161798000Y-93472000D03*
X161798000Y-90932000D03*
X161798000Y-88392000D03*
X161798000Y-85852000D03*
X161798000Y-83312000D03*
X161798000Y-80772000D03*
X161798000Y-78232000D03*
X161798000Y-75692000D03*
X161798000Y-73152000D03*
X161798000Y-70612000D03*
%TD*%
D16*
%TO.C,H4*%
X162432000Y-116586000D03*
D17*
X160782000Y-116586000D03*
D16*
X160782000Y-118236000D03*
X159615274Y-117752726D03*
X161948726Y-115419274D03*
X159132000Y-116586000D03*
X159615274Y-115419274D03*
X160782000Y-114936000D03*
X161948726Y-117752726D03*
%TD*%
D18*
%TO.C,A1*%
X191516000Y-106172000D03*
D19*
X191516000Y-103632000D03*
X191516000Y-101092000D03*
X191516000Y-98552000D03*
X191516000Y-96012000D03*
X191516000Y-93472000D03*
X191516000Y-90932000D03*
X191516000Y-88392000D03*
X191516000Y-85852000D03*
X191516000Y-83312000D03*
X191516000Y-80772000D03*
X191516000Y-78232000D03*
X191516000Y-75692000D03*
X191516000Y-73152000D03*
X191516000Y-70612000D03*
X176276000Y-70612000D03*
X176276000Y-73152000D03*
X176276000Y-75692000D03*
X176276000Y-78232000D03*
X176276000Y-80772000D03*
X176276000Y-83312000D03*
X176276000Y-85852000D03*
X176276000Y-88392000D03*
X176276000Y-90932000D03*
X176276000Y-93472000D03*
X176276000Y-96012000D03*
X176276000Y-98552000D03*
X176276000Y-101092000D03*
X176276000Y-103632000D03*
X176276000Y-106172000D03*
%TD*%
D20*
%TO.C,U2*%
X126238000Y-114808000D03*
X126238000Y-112268000D03*
X126238000Y-109728000D03*
X126238000Y-107188000D03*
X126238000Y-104648000D03*
X126238000Y-102108000D03*
X126238000Y-99568000D03*
X126238000Y-97028000D03*
X133858000Y-97028000D03*
X133858000Y-99568000D03*
X133858000Y-102108000D03*
X133858000Y-104648000D03*
X133858000Y-107188000D03*
X133858000Y-109728000D03*
X133858000Y-112268000D03*
D21*
X133858000Y-114808000D03*
%TD*%
D16*
%TO.C,H2*%
X193549000Y-62357000D03*
X194032274Y-61190274D03*
X194032274Y-63523726D03*
X195199000Y-60707000D03*
D17*
X195199000Y-62357000D03*
D16*
X195199000Y-64007000D03*
X196365726Y-61190274D03*
X196365726Y-63523726D03*
X196849000Y-62357000D03*
%TD*%
%TO.C,H1*%
X123572000Y-62229000D03*
X124055274Y-61062274D03*
X124055274Y-63395726D03*
X125222000Y-60579000D03*
D17*
X125222000Y-62229000D03*
D16*
X125222000Y-63879000D03*
X126388726Y-61062274D03*
X126388726Y-63395726D03*
X126872000Y-62229000D03*
%TD*%
%TO.C,H3*%
X193930000Y-116586000D03*
X194413274Y-115419274D03*
X194413274Y-117752726D03*
X195580000Y-114936000D03*
D17*
X195580000Y-116586000D03*
D16*
X195580000Y-118236000D03*
X196746726Y-115419274D03*
X196746726Y-117752726D03*
X197230000Y-116586000D03*
%TD*%
D20*
%TO.C,U1*%
X126492000Y-90932000D03*
X126492000Y-88392000D03*
X126492000Y-85852000D03*
X126492000Y-83312000D03*
X126492000Y-80772000D03*
X126492000Y-78232000D03*
X126492000Y-75692000D03*
X126492000Y-73152000D03*
X134112000Y-73152000D03*
X134112000Y-75692000D03*
X134112000Y-78232000D03*
X134112000Y-80772000D03*
X134112000Y-83312000D03*
X134112000Y-85852000D03*
X134112000Y-88392000D03*
D21*
X134112000Y-90932000D03*
%TD*%
%LPD*%
M02*
